<mxfile host="app.diagrams.net" agent="Mozilla/5.0 (Windows NT 10.0; Win64; x64; rv:131.0) Gecko/20100101 Firefox/131.0" version="24.7.17">
  <diagram name="Page-1" id="zTSZtDhjhZTsCDNrap-G">
    <mxGraphModel dx="2364" dy="796" grid="1" gridSize="10" guides="1" tooltips="1" connect="1" arrows="1" fold="1" page="1" pageScale="1" pageWidth="850" pageHeight="1100" math="0" shadow="0">
      <root>
        <mxCell id="0" />
        <mxCell id="1" parent="0" />
        <mxCell id="cXiiE8XV0fkhPSOFfP1I-8" value="INICIO" style="strokeWidth=2;html=1;shape=mxgraph.flowchart.start_2;whiteSpace=wrap;" vertex="1" parent="1">
          <mxGeometry x="390" y="450" width="100" height="100" as="geometry" />
        </mxCell>
        <mxCell id="cXiiE8XV0fkhPSOFfP1I-13" value="" style="verticalLabelPosition=bottom;verticalAlign=top;html=1;shape=process;whiteSpace=wrap;rounded=1;size=0.14;arcSize=6;" vertex="1" parent="1">
          <mxGeometry x="-730" y="780" width="100" height="60" as="geometry" />
        </mxCell>
        <mxCell id="cXiiE8XV0fkhPSOFfP1I-14" value="" style="line;strokeWidth=2;direction=south;html=1;" vertex="1" parent="1">
          <mxGeometry x="435" y="550" width="10" height="110" as="geometry" />
        </mxCell>
        <mxCell id="cXiiE8XV0fkhPSOFfP1I-15" value="se prende luz roja" style="shape=parallelogram;html=1;strokeWidth=2;perimeter=parallelogramPerimeter;whiteSpace=wrap;rounded=1;arcSize=12;size=0.23;" vertex="1" parent="1">
          <mxGeometry x="350" y="610" width="170" height="60" as="geometry" />
        </mxCell>
        <mxCell id="cXiiE8XV0fkhPSOFfP1I-16" value="" style="line;strokeWidth=2;direction=south;html=1;" vertex="1" parent="1">
          <mxGeometry x="435" y="670" width="10" height="80" as="geometry" />
        </mxCell>
        <mxCell id="cXiiE8XV0fkhPSOFfP1I-17" value="&lt;div&gt;se prende luz roja&lt;/div&gt;&lt;div&gt;del segundo semaforo&lt;br&gt;&lt;/div&gt;" style="shape=parallelogram;html=1;strokeWidth=2;perimeter=parallelogramPerimeter;whiteSpace=wrap;rounded=1;arcSize=12;size=0.23;" vertex="1" parent="1">
          <mxGeometry x="345" y="740" width="190" height="70" as="geometry" />
        </mxCell>
        <mxCell id="cXiiE8XV0fkhPSOFfP1I-18" value="" style="line;strokeWidth=2;direction=south;html=1;" vertex="1" parent="1">
          <mxGeometry x="435" y="810" width="10" height="70" as="geometry" />
        </mxCell>
        <mxCell id="cXiiE8XV0fkhPSOFfP1I-19" value="&lt;div&gt;se prende luz roja del&lt;/div&gt;&lt;div&gt;tercer semaforo&lt;br&gt;&lt;/div&gt;" style="shape=parallelogram;html=1;strokeWidth=2;perimeter=parallelogramPerimeter;whiteSpace=wrap;rounded=1;arcSize=12;size=0.23;" vertex="1" parent="1">
          <mxGeometry x="345" y="880" width="190" height="60" as="geometry" />
        </mxCell>
        <mxCell id="cXiiE8XV0fkhPSOFfP1I-20" value="" style="line;strokeWidth=2;direction=south;html=1;" vertex="1" parent="1">
          <mxGeometry x="435" y="940" width="10" height="70" as="geometry" />
        </mxCell>
        <mxCell id="cXiiE8XV0fkhPSOFfP1I-21" value="&lt;div&gt;se prende luz roja del &lt;br&gt;&lt;/div&gt;&lt;div&gt;cuarto semaforo&lt;br&gt;&lt;/div&gt;" style="shape=parallelogram;html=1;strokeWidth=2;perimeter=parallelogramPerimeter;whiteSpace=wrap;rounded=1;arcSize=12;size=0.23;" vertex="1" parent="1">
          <mxGeometry x="332.5" y="1000" width="195" height="60" as="geometry" />
        </mxCell>
        <mxCell id="cXiiE8XV0fkhPSOFfP1I-22" value="" style="line;strokeWidth=2;direction=south;html=1;" vertex="1" parent="1">
          <mxGeometry x="435" y="1060" width="10" height="100" as="geometry" />
        </mxCell>
        <mxCell id="cXiiE8XV0fkhPSOFfP1I-23" value="&lt;div&gt;inicia un bucle para que&lt;/div&gt;&lt;div&gt;se repita lo siguiente&lt;br&gt;&lt;/div&gt;" style="strokeWidth=2;html=1;shape=mxgraph.flowchart.loop_limit;whiteSpace=wrap;" vertex="1" parent="1">
          <mxGeometry x="355" y="1150" width="170" height="110" as="geometry" />
        </mxCell>
        <mxCell id="cXiiE8XV0fkhPSOFfP1I-24" value="" style="line;strokeWidth=2;direction=south;html=1;" vertex="1" parent="1">
          <mxGeometry x="435" y="1260" width="10" height="100" as="geometry" />
        </mxCell>
        <mxCell id="cXiiE8XV0fkhPSOFfP1I-25" value="&lt;h3&gt;contruir un diagramade flujoque explique el algoritmo de funcionamiento de un cruze de semaforo lo que esta contituido por 4 semaforo por 3 luces(rojo,amarillo,verde) mas la luz del tiempo del cruze peatonal.explique con lenguaje fromal cada paso &lt;br&gt;&lt;/h3&gt;" style="verticalLabelPosition=bottom;verticalAlign=top;html=1;shape=card;whiteSpace=wrap;size=20;arcSize=12;gradientColor=none;rounded=0;strokeWidth=7;" vertex="1" parent="1">
          <mxGeometry x="280" y="180" width="300" height="115" as="geometry" />
        </mxCell>
      </root>
    </mxGraphModel>
  </diagram>
</mxfile>
